<?xml version="1.0" encoding="UTF-8"?>
<svg width="152px" height="152px" viewBox="0 0 152 152" version="1.1" xmlns="http://www.w3.org/2000/svg" xmlns:xlink="http://www.w3.org/1999/xlink">
    <!-- Generator: Sketch 43.2 (39069) - http://www.bohemiancoding.com/sketch -->
    <title>Favicon</title>
    <desc>Created with Sketch.</desc>
    <defs></defs>
    <g id="favicon-copy" stroke="none" stroke-width="1" fill="none" fill-rule="evenodd">
        <g id="Favicon" fill="#000000">
            <g id="palm-tree" transform="translate(-5.000000, -15.000000)">
                <path d="M120.790651,99.4857736 C141.329265,99.4857736 142.852233,101.116422 142.852233,101.116422 C146.656944,101.615626 143.008277,119.099603 143.008277,119.099603 C143.008277,119.099603 124.107191,123.90434 104.967709,123.90434 C74.3339612,123.90434 43.4618173,119.099603 43.4618173,119.099603 C43.4618173,119.099603 82.2874749,99.4857736 120.790651,99.4857736 Z" id="trunk" transform="translate(94.023230, 111.695057) rotate(83.000000) translate(-94.023230, -111.695057) "></path>
                <g id="palms">
                    <g id="palms-left" transform="translate(47.318154, 65.744805) rotate(-11.000000) translate(-47.318154, -65.744805) translate(5.818154, 31.744805)">
                        <path d="M34.6754691,39.0811676 C51.3858353,39.0811676 77.4877161,54.6669668 77.4877161,54.6669668 L68.2361585,54.6669668 C68.2361585,54.6669668 49.6966285,51.0869981 39.3012479,51.0869981 C28.9058672,51.0869981 1.11477972,54.6669668 1.11477972,54.6669668 C1.11477972,54.6669668 17.9651029,39.0811676 34.6754691,39.0811676 Z" id="palm" transform="translate(39.301248, 46.874067) rotate(339.000000) translate(-39.301248, -46.874067) "></path>
                        <path d="M33.6146423,25.6164262 C50.3250085,25.6164262 76.4268892,41.2022254 76.4268892,41.2022254 L67.1753317,41.2022254 C67.1753317,41.2022254 48.6358017,37.6222567 38.2404211,37.6222567 C27.8450404,37.6222567 0.0539528841,41.2022254 0.0539528841,41.2022254 C0.0539528841,41.2022254 16.9042761,25.6164262 33.6146423,25.6164262 Z" id="palm"></path>
                        <path d="M39.365763,13.1279582 C56.0761292,13.1279582 82.1780099,28.7137574 82.1780099,28.7137574 L72.9264524,28.7137574 C72.9264524,28.7137574 54.3869224,25.1337887 43.9915417,25.1337887 C33.5961611,25.1337887 5.80507356,28.7137574 5.80507356,28.7137574 C5.80507356,28.7137574 22.6553968,13.1279582 39.365763,13.1279582 Z" id="palm" transform="translate(43.991542, 20.920858) rotate(20.000000) translate(-43.991542, -20.920858) "></path>
                    </g>
                    <g id="palms-right" transform="translate(117.417699, 46.023353) rotate(11.000000) translate(-117.417699, -46.023353) translate(72.417699, 8.023353)">
                        <path d="M39.7852716,37.4974383 C56.4956378,37.4974383 82.5975185,53.0832375 82.5975185,53.0832375 L73.345961,53.0832375 C73.345961,53.0832375 54.806431,49.5032688 44.4110504,49.5032688 C34.0156697,49.5032688 6.22458218,53.0832375 6.22458218,53.0832375 C6.22458218,53.0832375 23.0749054,37.4974383 39.7852716,37.4974383 Z" id="palm" transform="translate(44.411050, 45.290338) rotate(-20.000000) translate(-44.411050, -45.290338) "></path>
                        <path d="M27.1858537,25.7190828 C43.8962198,25.7190828 69.9981006,41.304882 69.9981006,41.304882 L60.7465431,41.304882 C60.7465431,41.304882 42.2070131,37.7249133 31.8116324,37.7249133 C21.4162518,37.7249133 -6.37483574,41.304882 -6.37483574,41.304882 C-6.37483574,41.304882 10.4754875,25.7190828 27.1858537,25.7190828 Z" id="palm" transform="translate(31.811632, 33.511982) rotate(-47.000000) translate(-31.811632, -33.511982) "></path>
                        <path d="M45.8560699,54.5864465 C62.5664361,54.5864465 88.6683168,70.1722458 88.6683168,70.1722458 L79.4167593,70.1722458 C79.4167593,70.1722458 60.8772293,66.592277 50.4818486,66.592277 C40.086468,66.592277 12.2953805,70.1722458 12.2953805,70.1722458 C12.2953805,70.1722458 29.1457037,54.5864465 45.8560699,54.5864465 Z" id="palm" transform="translate(50.481849, 62.379346) rotate(8.000000) translate(-50.481849, -62.379346) "></path>
                    </g>
                </g>
            </g>
        </g>
    </g>
</svg>