<svg xmlns="http://www.w3.org/2000/svg" width="16" height="16"><path d="M14 2h-1.5v.5c0 .551-.449 1-1 1s-1-.449-1-1V2h-5v.5c0 .551-.449 1-1 1s-1-.449-1-1V2H2c-.55 0-1 .45-1 1v11c0 .55.45 1 1 1h12c.55 0 1-.45 1-1V3c0-.55-.45-1-1-1zm0 11.998l-.002.002H2.002L2 13.998V5h12v8.998zM4.5 3a.5.5 0 0 0 .5-.5v-2a.5.5 0 0 0-1 0v2a.5.5 0 0 0 .5.5zm7 0a.5.5 0 0 0 .5-.5v-2a.5.5 0 0 0-1 0v2a.5.5 0 0 0 .5.5zM9 6H4v1h4v2H4v1h4v2H4v1h5zm2 7h1V6h-2v1h1zm2.625 2.375H2.375c-.55 0-1-.325-1-.875v.5c0 .55.45 1 1 1h11.25c.55 0 1-.45 1-1v-.5c0 .55-.45.875-1 .875z"/></svg>