<svg width="152" height="152" xmlns="http://www.w3.org/2000/svg"><g fill="#000" fill-rule="evenodd"><path d="M104.404 121.775c2.503 20.386 1.07 22.096 1.07 22.096-.032 3.837-17.83 2.346-17.83 2.346s-7.073-18.174-9.405-37.171c-3.734-30.406-2.727-61.633-2.727-61.633s24.2 36.146 28.892 74.362z"/><path d="M34.564 59.644c14.171-8.855 44.566-9.47 44.566-9.47l-7.846 4.903s-17.62 6.789-26.435 12.298c-8.816 5.508-30.487 23.271-30.487 23.271s6.03-22.146 20.202-31.002z"/><path d="M32.978 44.02c16.403-3.189 45 7.13 45 7.13l-9.082 1.766s-18.882.023-29.086 2.006C29.605 56.906 3.008 65.723 3.008 65.723s13.567-18.515 29.97-21.703z"/><path d="M38.919 29.01c16.504 2.614 39.847 22.091 39.847 22.091l-9.138-1.447s-17.751-6.436-28.019-8.062c-10.267-1.627-38.276-2.438-38.276-2.438s19.08-12.758 35.586-10.144z"/><g><path d="M104.66 31.094c16.505-2.614 44.724 8.697 44.724 8.697l-9.138 1.447s-18.871-.636-29.138.99c-10.268 1.627-37.157 9.51-37.157 9.51s14.205-18.03 30.71-20.644z"/><path d="M92.005 20.516c13.52-9.822 43.797-12.556 43.797-12.556l-7.485 5.438S111.214 21.4 102.804 27.51c-8.41 6.11-28.789 25.341-28.789 25.341s4.471-22.513 17.99-32.335z"/><path d="M111.31 47.126c15.8 5.44 35.406 28.675 35.406 28.675l-8.748-3.012s-16.364-9.42-26.193-12.805c-9.829-3.384-37.271-9.047-37.271-9.047s21.006-9.25 36.806-3.81z"/></g></g></svg>